<?xml version="1.0" encoding="iso-8859-1"?>
<!-- Generator: Adobe Illustrator 16.0.0, SVG Export Plug-In . SVG Version: 6.00 Build 0)  -->
<!DOCTYPE svg PUBLIC "-//W3C//DTD SVG 1.1//EN" "http://www.w3.org/Graphics/SVG/1.1/DTD/svg11.dtd">
<svg version="1.1" id="Ebene_1" xmlns="http://www.w3.org/2000/svg" xmlns:xlink="http://www.w3.org/1999/xlink" x="0px" y="0px"
	 width="800px" height="1000px" viewBox="0 0 800 1000" style="enable-background:new 0 0 800 1000;" xml:space="preserve">
<g id="ROOT">
	<g id="LETTERZ">
		<g id="A">
		</g>
		<g id="B">
		</g>
		<g id="C">
		</g>
		<g id="D">
		</g>
		<g id="E">
		</g>
		<g id="F">
		</g>
		<g id="G">
		</g>
		<g id="H">
		</g>
		<g id="I">
		</g>
		<g id="J">
		</g>
		<g id="K">
		</g>
		<g id="L">
		</g>
		<g id="M">
		</g>
		<g id="N">
		</g>
		<g id="O">
		</g>
		<g id="P">
		</g>
		<g id="Q">
		</g>
		<g id="R">
		</g>
		<g id="S">
		</g>
		<g id="T">
		</g>
		<g id="U">
		</g>
		<g id="V">
		</g>
		<g id="W">
		</g>
		<g id="X">
		</g>
		<g id="Y">
		</g>
		<g id="Z">
		</g>
	</g>
	<g id="NUMBERZ">
		<g id="_x30_">
		</g>
		<g id="_x31_">
		</g>
		<g id="_x32_">
		</g>
		<g id="_x33_">
		</g>
		<g id="_x34_">
		</g>
		<g id="_x35_">
		</g>
		<g id="_x36_">
		</g>
		<g id="_x37_">
		</g>
		<g id="_x38_">
		</g>
		<g id="_x39_">
		</g>
	</g>
	<g id="SYMBOLZ">
		<g id=":">
		</g>
		<g id="_x3B_">
		</g>
		<g id="_x3C_">
		</g>
		<g id="_x3D_">
		</g>
		<g id="_x3E_">
		</g>
		<g id="_x3F_">
		</g>
		<g id="_x40_">
		</g>
		<g id="_x21_">
		</g>
		<g id="_x22_">
		</g>
		<g id="_x23_">
			<polygon style="fill:none;stroke:#000000;stroke-width:20;stroke-miterlimit:10;" points="254,350 254,350 254,300 354,200 
				354,350 454,350 454,300 554,200 554,350 704,350 604,450 554,450 554,550 704,550 604,650 554,650 554,700 454,800 454,650 
				354,650 354,700 254,800 254,650 104,650 204,550 254,550 254,650 254,450 104,450 204,350 			"/>
			<path style="fill:none;stroke:#000000;stroke-width:20;stroke-miterlimit:10;" d="M458,492"/>
			<line style="fill:none;stroke:#000000;stroke-width:20;stroke-miterlimit:10;" x1="454" y1="350" x2="454" y2="450"/>
			<line style="fill:none;stroke:#000000;stroke-width:20;stroke-miterlimit:10;" x1="254" y1="650" x2="354" y2="650"/>
			<line style="fill:none;stroke:#000000;stroke-width:20;stroke-miterlimit:10;" x1="354" y1="450" x2="354" y2="550"/>
			<line style="fill:none;stroke:#000000;stroke-width:20;stroke-miterlimit:10;" x1="454" y1="450" x2="454" y2="650"/>
			<line style="fill:none;stroke:#000000;stroke-width:20;stroke-miterlimit:10;" x1="254" y1="450" x2="454" y2="450"/>
			<line style="fill:none;stroke:#000000;stroke-width:20;stroke-miterlimit:10;" x1="354" y1="550" x2="454" y2="550"/>
			<line style="fill:none;stroke:#000000;stroke-width:20;stroke-miterlimit:10;" x1="454" y1="450" x2="554" y2="450"/>
			<line style="fill:none;stroke:#000000;stroke-width:20;stroke-miterlimit:10;" x1="254" y1="350" x2="254" y2="450"/>
			<line style="fill:none;stroke:#000000;stroke-width:20;stroke-miterlimit:10;" x1="354" y1="350" x2="254" y2="450"/>
			<line style="fill:none;stroke:#000000;stroke-width:20;stroke-miterlimit:10;" x1="554" y1="650" x2="454" y2="650"/>
			<line style="fill:none;stroke:#000000;stroke-width:20;stroke-miterlimit:10;" x1="554" y1="350" x2="454" y2="450"/>
			<line style="fill:none;stroke:#000000;stroke-width:20;stroke-miterlimit:10;" x1="554" y1="550" x2="454" y2="650"/>
			<line style="fill:none;stroke:#000000;stroke-width:20;stroke-miterlimit:10;" x1="354" y1="550" x2="254" y2="650"/>
		</g>
		<g id="_x24_">
		</g>
		<g id="_x25_">
		</g>
		<g id="_x26_">
		</g>
		<g id="_x27_">
		</g>
		<g id="_x28_">
		</g>
		<g id="_x29_">
		</g>
		<g id="_x2A_">
		</g>
		<g id="_x2B_">
		</g>
		<g id="_x2C_">
		</g>
		<g id="_x2D_">
		</g>
		<g id="_x2E_">
		</g>
		<g id="_x2F_">
		</g>
		<g id="_x5B_">
		</g>
		<g id="_x5C_">
		</g>
		<g id="_x5E_">
		</g>
		<g id="_x5F_">
		</g>
		<g id="_xB4_">
		</g>
		<g id="_x7B_">
		</g>
		<g id="_x7C_">
		</g>
		<g id="_x7D_">
		</g>
		<g id="_x7E_">
		</g>
	</g>
</g>
</svg>
